<svg width="106" height="84" viewBox="0 0 106 84" fill="none" xmlns="http://www.w3.org/2000/svg">
<g filter="url(#filter0_dii_669_3578)">
<circle cx="53" cy="23.5" r="23" fill="url(#paint0_radial_669_3578)"/>
<circle cx="53" cy="23.5" r="23" fill="url(#paint1_linear_669_3578)" fill-opacity="0.9" style="mix-blend-mode:overlay"/>
<circle cx="53" cy="23.5" r="22.5" stroke="url(#paint2_linear_669_3578)" style="mix-blend-mode:overlay"/>
</g>
<path d="M53 31.9736C48.3765 31.9736 44.5332 28.1304 44.5332 23.5068C44.5332 18.875 48.3682 15.04 52.9917 15.04C57.6235 15.04 61.4668 18.875 61.4668 23.5068C61.4668 28.1304 57.6318 31.9736 53 31.9736ZM53 30.5625C56.918 30.5625 60.0557 27.4248 60.0557 23.5068C60.0557 19.5889 56.9097 16.4512 52.9917 16.4512C49.0737 16.4512 45.9526 19.5889 45.9526 23.5068C45.9526 27.4248 49.082 30.5625 53 30.5625ZM50.103 26.0635C49.7046 26.0635 49.5386 25.5903 49.7544 25.2334L52.5518 20.502C52.751 20.1616 53.2324 20.145 53.4482 20.502L56.229 25.2334C56.4614 25.6235 56.2871 26.0635 55.8887 26.0635L50.103 26.0635Z" fill="url(#paint3_linear_669_3578)" style="mix-blend-mode:overlay"/>
<defs>
<filter id="filter0_dii_669_3578" x="0" y="-0.5" width="106" height="107" filterUnits="userSpaceOnUse" color-interpolation-filters="sRGB">
<feFlood flood-opacity="0" result="BackgroundImageFix"/>
<feColorMatrix in="SourceAlpha" type="matrix" values="0 0 0 0 0 0 0 0 0 0 0 0 0 0 0 0 0 0 127 0" result="hardAlpha"/>
<feOffset dy="30"/>
<feGaussianBlur stdDeviation="15"/>
<feComposite in2="hardAlpha" operator="out"/>
<feColorMatrix type="matrix" values="0 0 0 0 0 0 0 0 0 0 0 0 0 0 0 0 0 0 0.6 0"/>
<feBlend mode="normal" in2="BackgroundImageFix" result="effect1_dropShadow_669_3578"/>
<feBlend mode="normal" in="SourceGraphic" in2="effect1_dropShadow_669_3578" result="shape"/>
<feColorMatrix in="SourceAlpha" type="matrix" values="0 0 0 0 0 0 0 0 0 0 0 0 0 0 0 0 0 0 127 0" result="hardAlpha"/>
<feOffset/>
<feGaussianBlur stdDeviation="2.5"/>
<feComposite in2="hardAlpha" operator="arithmetic" k2="-1" k3="1"/>
<feColorMatrix type="matrix" values="0 0 0 0 1 0 0 0 0 0.675 0 0 0 0 0.892944 0 0 0 1 0"/>
<feBlend mode="overlay" in2="shape" result="effect2_innerShadow_669_3578"/>
<feColorMatrix in="SourceAlpha" type="matrix" values="0 0 0 0 0 0 0 0 0 0 0 0 0 0 0 0 0 0 127 0" result="hardAlpha"/>
<feOffset dy="-1"/>
<feGaussianBlur stdDeviation="4"/>
<feComposite in2="hardAlpha" operator="arithmetic" k2="-1" k3="1"/>
<feColorMatrix type="matrix" values="0 0 0 0 0.576623 0 0 0 0 0.460156 0 0 0 0 0.7125 0 0 0 1 0"/>
<feBlend mode="overlay" in2="effect2_innerShadow_669_3578" result="effect3_innerShadow_669_3578"/>
</filter>
<radialGradient id="paint0_radial_669_3578" cx="0" cy="0" r="1" gradientUnits="userSpaceOnUse" gradientTransform="translate(65.2746 31.1667) rotate(-92.637) scale(116.561 52.2744)">
<stop stop-color="#602EA6"/>
<stop offset="1" stop-color="#C977D6"/>
</radialGradient>
<linearGradient id="paint1_linear_669_3578" x1="53" y1="-30.0469" x2="53" y2="46.5" gradientUnits="userSpaceOnUse">
<stop offset="0.0333845" stop-color="#FEC8F1"/>
<stop offset="0.576675" stop-color="#ED92D7" stop-opacity="0"/>
</linearGradient>
<linearGradient id="paint2_linear_669_3578" x1="47.3937" y1="32.4063" x2="67.9468" y2="3.29559" gradientUnits="userSpaceOnUse">
<stop stop-opacity="0.5"/>
<stop offset="1" stop-color="white" stop-opacity="0.5"/>
</linearGradient>
<linearGradient id="paint3_linear_669_3578" x1="53" y1="13.5" x2="53" y2="33.5" gradientUnits="userSpaceOnUse">
<stop stop-color="white" stop-opacity="0.8"/>
<stop offset="1" stop-color="white" stop-opacity="0.3"/>
</linearGradient>
</defs>
</svg>
