<svg width="116" height="104" viewBox="0 0 116 104" fill="none" xmlns="http://www.w3.org/2000/svg">
<g filter="url(#filter0_bd_660_5823)">
<path d="M53 81.1132C56.094 82.8996 59.906 82.8996 63 81.1132L80.7128 70.8868C83.8068 69.1004 85.7128 65.7992 85.7128 62.2265V41.7735C85.7128 38.2008 83.8068 34.8996 80.7128 33.1133L63 22.8867C59.906 21.1004 56.094 21.1004 53 22.8867L35.2872 33.1133C32.1932 34.8996 30.2872 38.2008 30.2872 41.7735V62.2265C30.2872 65.7992 32.1932 69.1004 35.2872 70.8868L53 81.1132Z" fill="url(#paint0_radial_660_5823)"/>
<path d="M53.25 80.6802C56.1893 82.3772 59.8107 82.3772 62.75 80.6802L80.4628 70.4537C83.4021 68.7567 85.2128 65.6205 85.2128 62.2265V41.7735C85.2128 38.3795 83.4021 35.2433 80.4628 33.5463L62.75 23.3198C59.8107 21.6227 56.1893 21.6227 53.25 23.3198L35.5372 33.5463C32.5979 35.2433 30.7872 38.3795 30.7872 41.7735V62.2265C30.7872 65.6205 32.5979 68.7567 35.5372 70.4537L53.25 80.6802Z" stroke="url(#paint1_linear_660_5823)" style="mix-blend-mode:overlay"/>
</g>
<path d="M51.7422 65.1016C49.3633 65.1016 48.1445 63.8945 48.1445 61.4805L48.1445 43.668C48.1445 41.2188 49.3516 39.9883 51.7773 39.9883L64.2227 39.9883C66.6484 39.9883 67.8555 41.2305 67.8555 43.668L67.8555 57.1094C67.8555 58.2813 67.3164 58.8555 66.8711 59.3008C65.418 60.7656 65.7227 62.6758 67.1992 63.2617C67.5742 63.3906 67.8555 63.7539 67.8555 64.1641C67.8555 64.6914 67.4336 65.1016 66.918 65.1016L51.7422 65.1016ZM64.1289 41.875L52.9492 41.875L52.9492 57.8477L64.9492 57.8477C65.6055 57.8477 65.9687 57.4844 65.9687 56.8516L65.9687 43.7031C65.9687 42.5313 65.3477 41.875 64.1289 41.875ZM50.0312 58.3281C50.4297 58.082 50.875 57.9297 51.4141 57.8711L51.4141 41.9102C50.5 42.0625 50.0312 42.6836 50.0312 43.7031L50.0312 58.3281ZM55.0469 47.5C54.625 47.5 54.2852 47.1484 54.2852 46.7266C54.2852 46.3047 54.625 45.9648 55.0469 45.9648L63.8359 45.9648C64.2578 45.9648 64.5977 46.3047 64.5977 46.7266C64.5977 47.1484 64.2578 47.5 63.8359 47.5L55.0469 47.5ZM55.0469 50.7227C54.625 50.7227 54.2852 50.3711 54.2852 49.9492C54.2852 49.5273 54.625 49.1875 55.0469 49.1875L61.7148 49.1875C62.1367 49.1875 62.4766 49.5273 62.4766 49.9492C62.4766 50.3711 62.1367 50.7227 61.7148 50.7227L55.0469 50.7227ZM51.8477 63.2148L64.5508 63.2148C63.9297 62.207 63.8359 60.918 64.3867 59.6992C64.2695 59.7227 64.1289 59.7344 63.9766 59.7344L51.9531 59.7344C50.7812 59.7344 50.0312 60.4141 50.0312 61.4688C50.0312 62.582 50.6641 63.2148 51.8477 63.2148Z" fill="url(#paint2_linear_660_5823)" style="mix-blend-mode:overlay"/>
<defs>
<filter id="filter0_bd_660_5823" x="0.287231" y="-8.453" width="115.426" height="120.906" filterUnits="userSpaceOnUse" color-interpolation-filters="sRGB">
<feFlood flood-opacity="0" result="BackgroundImageFix"/>
<feGaussianBlur in="BackgroundImageFix" stdDeviation="2"/>
<feComposite in2="SourceAlpha" operator="in" result="effect1_backgroundBlur_660_5823"/>
<feColorMatrix in="SourceAlpha" type="matrix" values="0 0 0 0 0 0 0 0 0 0 0 0 0 0 0 0 0 0 127 0" result="hardAlpha"/>
<feOffset/>
<feGaussianBlur stdDeviation="15"/>
<feComposite in2="hardAlpha" operator="out"/>
<feColorMatrix type="matrix" values="0 0 0 0 0.462745 0 0 0 0 0.239216 0 0 0 0 0.690196 0 0 0 1 0"/>
<feBlend mode="normal" in2="effect1_backgroundBlur_660_5823" result="effect2_dropShadow_660_5823"/>
<feBlend mode="normal" in="SourceGraphic" in2="effect2_dropShadow_660_5823" result="shape"/>
</filter>
<radialGradient id="paint0_radial_660_5823" cx="0" cy="0" r="1" gradientUnits="userSpaceOnUse" gradientTransform="translate(75.0777 41.3333) rotate(92.637) scale(162.172 72.7296)">
<stop stop-color="#602EA6"/>
<stop offset="1" stop-color="#C977D6"/>
</radialGradient>
<linearGradient id="paint1_linear_660_5823" x1="50.2" y1="39.6086" x2="78.7955" y2="80.1105" gradientUnits="userSpaceOnUse">
<stop stop-color="white"/>
<stop offset="1" stop-color="white" stop-opacity="0.5"/>
</linearGradient>
<linearGradient id="paint2_linear_660_5823" x1="58" y1="38" x2="58" y2="67" gradientUnits="userSpaceOnUse">
<stop stop-color="white" stop-opacity="0.8"/>
<stop offset="1" stop-color="white" stop-opacity="0.3"/>
</linearGradient>
</defs>
</svg>
