<svg width="156" height="30" viewBox="0 0 156 30" fill="none" xmlns="http://www.w3.org/2000/svg">
<path d="M9.05673 22.8077C7.45731 22.8077 6.01283 22.5301 4.7233 21.9749C3.44376 21.4097 2.38914 20.6067 1.55944 19.5656C0.739733 18.5147 0.219921 17.2655 0 15.8179L4.25846 15.1933C4.55836 16.4227 5.17813 17.3696 6.11779 18.0338C7.05746 18.6981 8.12707 19.0303 9.32664 19.0303C9.9964 19.0303 10.6462 18.9262 11.2759 18.7179C11.9057 18.5097 12.4205 18.2024 12.8204 17.7959C13.2302 17.3894 13.4352 16.8887 13.4352 16.2938C13.4352 16.0757 13.4002 15.8675 13.3302 15.6692C13.2702 15.461 13.1653 15.2677 13.0153 15.0892C12.8654 14.9108 12.6504 14.7422 12.3705 14.5836C12.1006 14.425 11.7558 14.2812 11.3359 14.1523L5.72793 12.5164C5.30809 12.3974 4.81826 12.2289 4.25846 12.0108C3.70866 11.7926 3.17386 11.4803 2.65404 11.0738C2.13423 10.6674 1.69939 10.132 1.34951 9.46769C1.00964 8.7935 0.839697 7.94581 0.839697 6.92461C0.839697 5.48701 1.20457 4.29231 1.9343 3.34051C2.66404 2.38872 3.63869 1.67983 4.85825 1.21385C6.07781 0.747862 7.42732 0.519828 8.90679 0.529743C10.3963 0.549572 11.7258 0.802392 12.8954 1.2882C14.0649 1.77402 15.0446 2.48291 15.8343 3.41487C16.624 4.33692 17.1938 5.46718 17.5437 6.80564L13.1353 7.54923C12.9753 6.85521 12.6804 6.27026 12.2506 5.79436C11.8207 5.31846 11.3059 4.95658 10.7061 4.70872C10.1164 4.46085 9.49658 4.32701 8.84681 4.30718C8.20704 4.28735 7.60226 4.37658 7.03246 4.57487C6.47267 4.76325 6.01283 5.04085 5.65296 5.40769C5.30309 5.77453 5.12815 6.21077 5.12815 6.71641C5.12815 7.18239 5.2731 7.5641 5.56299 7.86154C5.85289 8.14906 6.21776 8.38205 6.6576 8.56051C7.09744 8.73897 7.54728 8.88769 8.00711 9.00667L11.7558 10.0179C12.3156 10.1667 12.9353 10.365 13.6151 10.6128C14.2948 10.8508 14.9446 11.1879 15.5644 11.6241C16.1942 12.0504 16.709 12.6156 17.1088 13.3195C17.5187 14.0234 17.7236 14.9157 17.7236 15.9964C17.7236 17.1465 17.4787 18.1528 16.9889 19.0154C16.509 19.868 15.8593 20.5769 15.0396 21.1421C14.2199 21.6973 13.2902 22.1137 12.2506 22.3913C11.221 22.6689 10.1563 22.8077 9.05673 22.8077Z" fill="white"/>
<path d="M27.0472 22.8077C25.3878 22.8077 23.9233 22.4557 22.6538 21.7518C21.3942 21.038 20.4046 20.0614 19.6849 18.8221C18.9751 17.5728 18.6202 16.1451 18.6202 14.539C18.6202 12.7841 18.9701 11.2573 19.6699 9.95846C20.3696 8.65966 21.3343 7.65333 22.5638 6.93949C23.7934 6.21573 25.2079 5.85385 26.8073 5.85385C28.5067 5.85385 29.9512 6.25043 31.1407 7.04359C32.3303 7.83675 33.21 8.95214 33.7798 10.3897C34.3496 11.8274 34.5495 13.5178 34.3796 15.461H30.346V13.9738C30.346 12.3379 30.0811 11.1631 29.5513 10.4492C29.0315 9.72547 28.1768 9.36359 26.9872 9.36359C25.5977 9.36359 24.5731 9.78496 23.9133 10.6277C23.2636 11.4605 22.9387 12.6949 22.9387 14.3308C22.9387 15.8279 23.2636 16.9879 23.9133 17.8108C24.5731 18.6238 25.5377 19.0303 26.8073 19.0303C27.607 19.0303 28.2917 18.8568 28.8615 18.5097C29.4313 18.1627 29.8662 17.6621 30.1661 17.0077L34.2446 18.1677C33.6348 19.635 32.6702 20.7752 31.3506 21.5882C30.0411 22.4012 28.6066 22.8077 27.0472 22.8077ZM21.6791 15.461V12.4569H32.4153V15.461H21.6791Z" fill="white"/>
<path d="M36.2658 22.3615V6.3H39.8645V10.2262L39.4747 9.72051C39.6846 9.1653 39.9645 8.65966 40.3144 8.20359C40.6642 7.74752 41.0941 7.37077 41.6039 7.07333C41.9938 6.83538 42.4186 6.65197 42.8784 6.52308C43.3383 6.38427 43.8131 6.3 44.3029 6.27026C44.7928 6.2306 45.2826 6.24051 45.7724 6.3V10.0774C45.3226 9.93863 44.7977 9.89402 44.198 9.94359C43.6082 9.98325 43.0734 10.1171 42.5935 10.3451C42.1137 10.5632 41.7089 10.8557 41.379 11.2226C41.0491 11.5795 40.7992 12.0058 40.6293 12.5015C40.4593 12.9873 40.3743 13.5376 40.3743 14.1523V22.3615H36.2658Z" fill="white"/>
<path d="M54.3596 22.8077C52.7002 22.8077 51.2357 22.4557 49.9662 21.7518C48.7067 21.038 47.717 20.0614 46.9973 18.8221C46.2875 17.5728 45.9327 16.1451 45.9327 14.539C45.9327 12.7841 46.2825 11.2573 46.9823 9.95846C47.682 8.65966 48.6467 7.65333 49.8762 6.93949C51.1058 6.21573 52.5203 5.85385 54.1197 5.85385C55.8191 5.85385 57.2636 6.25043 58.4531 7.04359C59.6427 7.83675 60.5224 8.95214 61.0922 10.3897C61.662 11.8274 61.8619 13.5178 61.692 15.461H57.6584V13.9738C57.6584 12.3379 57.3935 11.1631 56.8637 10.4492C56.3439 9.72547 55.4892 9.36359 54.2996 9.36359C52.9101 9.36359 51.8855 9.78496 51.2257 10.6277C50.576 11.4605 50.2511 12.6949 50.2511 14.3308C50.2511 15.8279 50.576 16.9879 51.2257 17.8108C51.8855 18.6238 52.8502 19.0303 54.1197 19.0303C54.9194 19.0303 55.6042 18.8568 56.174 18.5097C56.7438 18.1627 57.1786 17.6621 57.4785 17.0077L61.557 18.1677C60.9472 19.635 59.9826 20.7752 58.6631 21.5882C57.3535 22.4012 55.9191 22.8077 54.3596 22.8077ZM48.9916 15.461V12.4569H59.7277V15.461H48.9916Z" fill="white"/>
<path d="M74.175 22.3615V14.7769C74.175 14.4101 74.155 13.9441 74.115 13.379C74.075 12.8039 73.9501 12.2289 73.7401 11.6538C73.5302 11.0788 73.1853 10.5979 72.7055 10.2113C72.2357 9.82461 71.5659 9.63128 70.6962 9.63128C70.3464 9.63128 69.9715 9.68581 69.5716 9.79487C69.1718 9.90393 68.7969 10.1171 68.447 10.4344C68.0972 10.7417 67.8073 11.1978 67.5774 11.8026C67.3574 12.4073 67.2475 13.2104 67.2475 14.2118L64.9083 13.1113C64.9083 11.8422 65.1682 10.6525 65.688 9.54205C66.2078 8.43162 66.9876 7.53436 68.0272 6.85025C69.0768 6.16615 70.3963 5.8241 71.9858 5.8241C73.2553 5.8241 74.2899 6.03726 75.0896 6.46359C75.8894 6.88991 76.5091 7.43026 76.949 8.08461C77.3988 8.73897 77.7187 9.42308 77.9086 10.1369C78.0986 10.8409 78.2135 11.4853 78.2535 12.0703C78.2935 12.6552 78.3135 13.0815 78.3135 13.3492V22.3615H74.175ZM63.109 22.3615V6.3H66.7377V11.6241H67.2475V22.3615H63.109Z" fill="white"/>
<path d="M86.9797 22.8077C85.4902 22.8077 84.1857 22.4359 83.0661 21.6923C81.9465 20.9487 81.0718 19.9374 80.442 18.6585C79.8222 17.3795 79.5123 15.9369 79.5123 14.3308C79.5123 12.6949 79.8272 11.2424 80.457 9.97333C81.0968 8.69436 81.9915 7.68803 83.141 6.95436C84.2906 6.22068 85.6401 5.85385 87.1896 5.85385C88.729 5.85385 90.0236 6.22564 91.0732 6.96923C92.1228 7.71282 92.9175 8.7241 93.4573 10.0031C93.9971 11.2821 94.267 12.7246 94.267 14.3308C94.267 15.9369 93.9921 17.3795 93.4423 18.6585C92.9025 19.9374 92.0928 20.9487 91.0132 21.6923C89.9336 22.4359 88.5891 22.8077 86.9797 22.8077ZM87.6394 19.2087C88.5491 19.2087 89.2738 19.0055 89.8136 18.599C90.3634 18.1925 90.7583 17.6224 90.9982 16.8887C91.2381 16.155 91.3581 15.3024 91.3581 14.3308C91.3581 13.3591 91.2381 12.5065 90.9982 11.7728C90.7583 11.0391 90.3734 10.4691 89.8436 10.0626C89.3238 9.65607 88.6391 9.45282 87.7894 9.45282C86.8797 9.45282 86.13 9.6759 85.5402 10.1221C84.9604 10.5583 84.5305 11.1482 84.2506 11.8918C83.9707 12.6255 83.8308 13.4385 83.8308 14.3308C83.8308 15.233 83.9657 16.0559 84.2356 16.7995C84.5055 17.5332 84.9204 18.1181 85.4802 18.5544C86.04 18.9906 86.7597 19.2087 87.6394 19.2087ZM91.3581 22.3615V11.3564H90.8483V0.946154H94.9568V22.3615H91.3581Z" fill="white"/>
<path d="M97.9557 4.06923V0.5H102.034V4.06923H97.9557ZM97.9557 22.3615V6.3H102.034V22.3615H97.9557Z" fill="white"/>
<path d="M112.977 22.8077C111.368 22.8077 110.023 22.4359 108.944 21.6923C107.864 20.9487 107.049 19.9374 106.5 18.6585C105.96 17.3795 105.69 15.9369 105.69 14.3308C105.69 12.7246 105.96 11.2821 106.5 10.0031C107.039 8.7241 107.834 7.71282 108.884 6.96923C109.933 6.22564 111.228 5.85385 112.767 5.85385C114.317 5.85385 115.666 6.22068 116.816 6.95436C117.965 7.68803 118.855 8.69436 119.485 9.97333C120.125 11.2424 120.445 12.6949 120.445 14.3308C120.445 15.9369 120.13 17.3795 119.5 18.6585C118.88 19.9374 118.01 20.9487 116.891 21.6923C115.771 22.4359 114.467 22.8077 112.977 22.8077ZM105 29.5V6.3H108.599V17.3051H109.109V29.5H105ZM112.317 19.2087C113.197 19.2087 113.917 18.9906 114.477 18.5544C115.036 18.1181 115.451 17.5332 115.721 16.7995C115.991 16.0559 116.126 15.233 116.126 14.3308C116.126 13.4385 115.986 12.6255 115.706 11.8918C115.426 11.1482 114.992 10.5583 114.402 10.1221C113.822 9.6759 113.077 9.45282 112.168 9.45282C111.318 9.45282 110.628 9.65607 110.098 10.0626C109.578 10.4691 109.199 11.0391 108.959 11.7728C108.719 12.5065 108.599 13.3591 108.599 14.3308C108.599 15.3024 108.719 16.155 108.959 16.8887C109.199 17.6224 109.588 18.1925 110.128 18.599C110.678 19.0055 111.408 19.2087 112.317 19.2087Z" fill="white"/>
<path d="M122.544 4.06923V0.5H126.623V4.06923H122.544ZM122.544 22.3615V6.3H126.623V22.3615H122.544Z" fill="white"/>
<path d="M139.335 22.3615C138.216 22.5697 137.116 22.659 136.037 22.6292C134.967 22.6094 134.007 22.426 133.158 22.079C132.318 21.7221 131.678 21.152 131.238 20.3687C130.838 19.635 130.629 18.8915 130.609 18.1379C130.589 17.3745 130.579 16.512 130.579 15.5503V1.83846H134.657V15.3123C134.657 15.9369 134.662 16.5021 134.672 17.0077C134.692 17.5034 134.797 17.9 134.987 18.1974C135.347 18.7626 135.922 19.0699 136.711 19.1195C137.501 19.1691 138.376 19.1294 139.335 19.0005V22.3615ZM127.82 9.42308V6.3H139.335V9.42308H127.82Z" fill="white"/>
<path d="M143.075 29.5L146.194 20.9933L146.254 23.4918L139.206 6.3H143.435L148.173 18.4651H147.213L151.921 6.3H156L146.853 29.5H143.075Z" fill="white"/>
</svg>
