<svg width="110" height="104" viewBox="0 0 110 104" fill="none" xmlns="http://www.w3.org/2000/svg">
<g filter="url(#filter0_bd_660_5825)">
<path d="M47 81.1132C50.094 82.8996 53.906 82.8996 57 81.1132L74.7128 70.8868C77.8068 69.1004 79.7128 65.7992 79.7128 62.2265V41.7735C79.7128 38.2008 77.8068 34.8996 74.7128 33.1133L57 22.8867C53.906 21.1004 50.094 21.1004 47 22.8867L29.2872 33.1133C26.1932 34.8996 24.2872 38.2008 24.2872 41.7735V62.2265C24.2872 65.7992 26.1932 69.1004 29.2872 70.8868L47 81.1132Z" fill="url(#paint0_radial_660_5825)"/>
<path d="M47.25 80.6802C50.1893 82.3772 53.8107 82.3772 56.75 80.6802L74.4628 70.4537C77.4021 68.7567 79.2128 65.6205 79.2128 62.2265V41.7735C79.2128 38.3795 77.4021 35.2433 74.4628 33.5463L56.75 23.3198C53.8107 21.6227 50.1893 21.6227 47.25 23.3198L29.5372 33.5463C26.5979 35.2433 24.7872 38.3795 24.7872 41.7735V62.2265C24.7872 65.6205 26.5979 68.7567 29.5372 70.4537L47.25 80.6802Z" stroke="url(#paint1_linear_660_5825)" style="mix-blend-mode:overlay"/>
</g>
<path d="M47.8242 47.0195C47.625 47.0195 47.4609 46.8906 47.4258 46.6797C47.0273 44.5469 47.0859 44.6172 44.9531 44.1953C44.7422 44.1602 44.6016 43.9961 44.6016 43.7969C44.6016 43.5977 44.7422 43.4453 44.9531 43.4102C47.0859 42.9883 47.0273 43.0586 47.4258 40.9258C47.4609 40.7148 47.625 40.5859 47.8242 40.5859C48.0234 40.5859 48.1875 40.7148 48.2227 40.9258C48.6211 43.0586 48.5625 42.9883 50.6953 43.4102C50.9062 43.4453 51.0469 43.5977 51.0469 43.7969C51.0469 43.9961 50.9062 44.1602 50.6953 44.1953C48.5625 44.6172 48.6211 44.5469 48.2227 46.6797C48.1875 46.8906 48.0234 47.0195 47.8242 47.0195ZM54.1406 56.5469C51.6211 56.5469 49.582 54.5195 49.582 51.9883C49.582 49.7617 51.1875 47.8984 53.3086 47.5117C53.3086 47.4883 53.3086 47.4648 53.3086 47.4297C53.3086 44.3711 55.793 41.8867 58.8398 41.8867C61.9102 41.8867 64.3945 44.3711 64.3945 47.4297C64.3945 50.4883 61.9102 52.9609 58.8398 52.9609C58.7578 52.9609 58.6758 52.9609 58.5937 52.9609C58.1484 55.0117 56.332 56.5469 54.1406 56.5469ZM55.0781 47.4297C55.0781 47.4648 55.0781 47.5 55.0781 47.5352C56.8828 47.9102 58.3008 49.3516 58.6289 51.1914C58.6992 51.1914 58.7695 51.1914 58.8398 51.1914C60.9258 51.1914 62.625 49.5156 62.625 47.4297C62.625 45.332 60.9492 43.6563 58.8398 43.6563C56.7539 43.6563 55.0781 45.3438 55.0781 47.4297ZM43.2305 53.5117C41.5195 53.5117 40.125 52.1172 40.125 50.4063C40.125 48.7188 41.5195 47.3242 43.2305 47.3242C44.918 47.3242 46.3242 48.7188 46.3242 50.4063C46.3242 52.1172 44.918 53.5117 43.2305 53.5117ZM43.2305 51.7422C43.957 51.7422 44.5547 51.1445 44.5547 50.4063C44.5547 49.6914 43.957 49.0938 43.2305 49.0938C42.4922 49.0938 41.8945 49.6914 41.8945 50.4063C41.8945 51.1445 42.4922 51.7422 43.2305 51.7422ZM54.1406 54.7773C55.6875 54.7773 56.9297 53.5469 56.9297 51.9883C56.9297 50.4414 55.6875 49.1992 54.1406 49.1992C52.5937 49.1992 51.3516 50.4414 51.3516 51.9883C51.3516 53.5469 52.5937 54.7773 54.1406 54.7773ZM60.5508 64.4922C60.2812 64.4922 60.082 64.293 60.0586 64.0234C59.707 61.2109 59.6484 61.1641 56.7187 60.6836C56.4258 60.6367 56.2383 60.4492 56.2383 60.1914C56.2383 59.957 56.4141 59.7578 56.6719 59.6992C59.6484 59.1367 59.707 59.1719 60.0586 56.3594C60.082 56.0898 60.2812 55.8906 60.5508 55.8906C60.8086 55.8906 61.0195 56.0781 61.043 56.3477C61.4062 59.2305 61.4648 59.2773 64.4062 59.6992C64.6758 59.7461 64.8633 59.9336 64.8633 60.1914C64.8633 60.4375 64.6758 60.6367 64.418 60.6836C61.4297 61.2578 61.418 61.2344 61.043 64.0469C61.0078 64.3047 60.7969 64.4922 60.5508 64.4922ZM47.8008 64.1172C45.9609 64.1172 44.4609 62.6172 44.4609 60.7773C44.4609 58.9609 45.9609 57.4609 47.8008 57.4609C49.6172 57.4609 51.1172 58.9609 51.1172 60.7773C51.1172 62.6172 49.6172 64.1172 47.8008 64.1172ZM47.8008 62.3359C48.6445 62.3359 49.3477 61.6211 49.3477 60.7773C49.3477 59.9336 48.6445 59.2305 47.8008 59.2305C46.9453 59.2305 46.2305 59.9336 46.2305 60.7773C46.2305 61.6445 46.9336 62.3359 47.8008 62.3359Z" fill="url(#paint2_linear_660_5825)" style="mix-blend-mode:overlay"/>
<defs>
<filter id="filter0_bd_660_5825" x="-5.71277" y="-8.453" width="115.426" height="120.906" filterUnits="userSpaceOnUse" color-interpolation-filters="sRGB">
<feFlood flood-opacity="0" result="BackgroundImageFix"/>
<feGaussianBlur in="BackgroundImageFix" stdDeviation="2"/>
<feComposite in2="SourceAlpha" operator="in" result="effect1_backgroundBlur_660_5825"/>
<feColorMatrix in="SourceAlpha" type="matrix" values="0 0 0 0 0 0 0 0 0 0 0 0 0 0 0 0 0 0 127 0" result="hardAlpha"/>
<feOffset/>
<feGaussianBlur stdDeviation="15"/>
<feComposite in2="hardAlpha" operator="out"/>
<feColorMatrix type="matrix" values="0 0 0 0 0.462745 0 0 0 0 0.239216 0 0 0 0 0.690196 0 0 0 1 0"/>
<feBlend mode="normal" in2="effect1_backgroundBlur_660_5825" result="effect2_dropShadow_660_5825"/>
<feBlend mode="normal" in="SourceGraphic" in2="effect2_dropShadow_660_5825" result="shape"/>
</filter>
<radialGradient id="paint0_radial_660_5825" cx="0" cy="0" r="1" gradientUnits="userSpaceOnUse" gradientTransform="translate(69.0777 41.3333) rotate(92.637) scale(162.172 72.7296)">
<stop stop-color="#602EA6"/>
<stop offset="1" stop-color="#C977D6"/>
</radialGradient>
<linearGradient id="paint1_linear_660_5825" x1="44.2" y1="39.6086" x2="72.7955" y2="80.1105" gradientUnits="userSpaceOnUse">
<stop stop-color="white"/>
<stop offset="1" stop-color="white" stop-opacity="0.5"/>
</linearGradient>
<linearGradient id="paint2_linear_660_5825" x1="52.5" y1="38" x2="52.5" y2="67" gradientUnits="userSpaceOnUse">
<stop stop-color="white" stop-opacity="0.8"/>
<stop offset="1" stop-color="white" stop-opacity="0.3"/>
</linearGradient>
</defs>
</svg>
