<svg width="116" height="104" viewBox="0 0 116 104" fill="none" xmlns="http://www.w3.org/2000/svg">
<g filter="url(#filter0_bd_660_5824)">
<path d="M53 81.1132C56.094 82.8996 59.906 82.8996 63 81.1132L80.7128 70.8868C83.8068 69.1004 85.7128 65.7992 85.7128 62.2265V41.7735C85.7128 38.2008 83.8068 34.8996 80.7128 33.1133L63 22.8867C59.906 21.1004 56.094 21.1004 53 22.8867L35.2872 33.1133C32.1932 34.8996 30.2872 38.2008 30.2872 41.7735V62.2265C30.2872 65.7992 32.1932 69.1004 35.2872 70.8868L53 81.1132Z" fill="url(#paint0_radial_660_5824)"/>
<path d="M53.25 80.6802C56.1893 82.3772 59.8107 82.3772 62.75 80.6802L80.4628 70.4537C83.4021 68.7567 85.2128 65.6205 85.2128 62.2265V41.7735C85.2128 38.3795 83.4021 35.2433 80.4628 33.5463L62.75 23.3198C59.8107 21.6227 56.1893 21.6227 53.25 23.3198L35.5372 33.5463C32.5979 35.2433 30.7872 38.3795 30.7872 41.7735V62.2265C30.7872 65.6205 32.5979 68.7567 35.5372 70.4537L53.25 80.6802Z" stroke="url(#paint1_linear_660_5824)" style="mix-blend-mode:overlay"/>
</g>
<path d="M49.7812 59.4063C47.3203 59.4063 46.1016 58.1875 46.1016 55.7734L46.1016 43.9141C46.1016 41.5 47.3203 40.2813 49.7812 40.2813L61.5469 40.2813C63.9844 40.2813 65.2148 41.5 65.2148 43.9141L65.2148 45.707L67.2305 45.707C69.668 45.707 70.8984 46.9258 70.8984 49.3398L70.8984 61.1992C70.8984 63.6133 69.668 64.832 67.2305 64.832L55.4648 64.832C53.0039 64.832 51.7852 63.6133 51.7852 61.1992L51.7852 59.4063L49.7812 59.4063ZM49.8047 57.5195L51.7852 57.5195L51.7852 49.3398C51.7852 46.9141 53.0039 45.707 55.4648 45.707L63.3281 45.707L63.3281 44.0195C63.3281 42.8008 62.6719 42.168 61.5117 42.168L49.8047 42.168C48.6328 42.168 47.9883 42.8008 47.9883 44.0195L47.9883 55.668C47.9883 56.8867 48.6328 57.5195 49.8047 57.5195ZM61.957 60.1328C62.168 60.1328 62.332 59.9688 62.3906 59.7461C63.0586 56.1953 63.3867 55.5273 67.0781 55.0352C67.3125 55.0117 67.4766 54.8242 67.4766 54.5898C67.4766 54.3672 67.3125 54.1914 67.0781 54.1563C63.3984 53.6523 62.9062 52.9492 62.3906 49.4688C62.3437 49.2344 62.168 49.0586 61.957 49.0586C61.7227 49.0586 61.5586 49.2227 61.4883 49.457C60.832 53.0195 60.5039 53.6523 56.8242 54.1563C56.5781 54.1914 56.4141 54.3672 56.4141 54.5898C56.4141 54.8242 56.5781 55 56.8242 55.0352C60.5156 55.4102 60.9844 56.1953 61.4883 59.7344C61.5352 59.9688 61.6992 60.1328 61.957 60.1328ZM57.1875 62.1016C57.3633 62.1016 57.4922 61.9961 57.5391 61.832C57.8555 60.0625 57.7383 59.9922 59.6602 59.6992C59.8242 59.6641 59.9531 59.5352 59.9531 59.3711C59.9531 59.1953 59.8242 59.0664 59.6602 59.043C57.75 58.7148 57.8555 58.6328 57.5391 56.9219C57.4922 56.7461 57.375 56.6172 57.1875 56.6172C57.0234 56.6172 56.9062 56.7344 56.8477 56.9219C56.5078 58.6328 56.6602 58.7148 54.7383 59.043C54.5625 59.0664 54.4453 59.1953 54.4453 59.3711C54.4453 59.5586 54.5625 59.6641 54.7617 59.6992C56.6602 59.9922 56.5078 60.0625 56.8477 61.7969C56.9062 61.9844 57.0117 62.1016 57.1875 62.1016Z" fill="url(#paint2_linear_660_5824)" style="mix-blend-mode:overlay"/>
<defs>
<filter id="filter0_bd_660_5824" x="0.287231" y="-8.453" width="115.426" height="120.906" filterUnits="userSpaceOnUse" color-interpolation-filters="sRGB">
<feFlood flood-opacity="0" result="BackgroundImageFix"/>
<feGaussianBlur in="BackgroundImageFix" stdDeviation="2"/>
<feComposite in2="SourceAlpha" operator="in" result="effect1_backgroundBlur_660_5824"/>
<feColorMatrix in="SourceAlpha" type="matrix" values="0 0 0 0 0 0 0 0 0 0 0 0 0 0 0 0 0 0 127 0" result="hardAlpha"/>
<feOffset/>
<feGaussianBlur stdDeviation="15"/>
<feComposite in2="hardAlpha" operator="out"/>
<feColorMatrix type="matrix" values="0 0 0 0 0.462745 0 0 0 0 0.239216 0 0 0 0 0.690196 0 0 0 1 0"/>
<feBlend mode="normal" in2="effect1_backgroundBlur_660_5824" result="effect2_dropShadow_660_5824"/>
<feBlend mode="normal" in="SourceGraphic" in2="effect2_dropShadow_660_5824" result="shape"/>
</filter>
<radialGradient id="paint0_radial_660_5824" cx="0" cy="0" r="1" gradientUnits="userSpaceOnUse" gradientTransform="translate(75.0777 41.3333) rotate(92.637) scale(162.172 72.7296)">
<stop stop-color="#602EA6"/>
<stop offset="1" stop-color="#C977D6"/>
</radialGradient>
<linearGradient id="paint1_linear_660_5824" x1="50.2" y1="39.6086" x2="78.7955" y2="80.1105" gradientUnits="userSpaceOnUse">
<stop stop-color="white"/>
<stop offset="1" stop-color="white" stop-opacity="0.5"/>
</linearGradient>
<linearGradient id="paint2_linear_660_5824" x1="58.5" y1="38" x2="58.5" y2="67" gradientUnits="userSpaceOnUse">
<stop stop-color="white" stop-opacity="0.8"/>
<stop offset="1" stop-color="white" stop-opacity="0.3"/>
</linearGradient>
</defs>
</svg>
